<mxfile host="app.diagrams.net" modified="2023-05-04T08:09:32.151Z" agent="Mozilla/5.0 (Windows NT 10.0; Win64; x64; rv:109.0) Gecko/20100101 Firefox/112.0" version="21.2.7" etag="TC5Ng_zRJtFwLWv99vW_" type="github">
  <diagram name="第 1 页" id="6mTVypJia92XJiEVpkMr">
    <mxGraphModel>
      <root>
        <mxCell id="0" />
        <mxCell id="1" parent="0" />
      </root>
    </mxGraphModel>
  </diagram>
</mxfile>
